#!OML:ASF E:\Style4\Style4.ASF
:FULLY-SPECIFIED
:DEGREES
1797
root -0.37765 18.121 -1.81497 -0.810846 0.626635 0.939655
lowerback 5.08412 1.62215 0.993214
upperback 0.583327 2.19726 -0.809161
thorax -2.17924 1.08458 -1.53831
lowerneck -0.353992 -3.90422 -5.81065
upperneck 8.90665 -5.4758 5.29768
head 3.31129 -2.7414 2.61063
rclavicle -1.21476e-014 -5.11871e-015
rhumerus -294.336 -29.353 -384.755
rradius 84.5937
rwrist -63.9496
rhand -27.1303 25.4195
rfingers 7.12502
rthumb -0.545928 -4.55953
lclavicle -1.21476e-014 -5.11871e-015
lhumerus 71.3942 26.4587 29.8881
lradius 81.566
lwrist 58.9316
lhand -14.4212 25.0613
lfingers 7.12502
lthumb 11.7229 54.7133
rfemur -3.39487 4.40691 18.6723
rtibia 17.8223
rfoot -13.1478 -15.7195
rtoes -8.36606
lfemur -0.548655 -2.80757 -19.6863
ltibia 15.3759
lfoot -14.6454 13.0234
ltoes -12.2989
1798
root -0.372601 18.122 -1.81737 -0.829907 0.616355 0.906707
lowerback 5.0869 1.59767 0.998569
upperback 0.627111 2.16543 -0.788706
thorax -2.1374 1.06933 -1.51735
lowerneck -0.356032 -3.88124 -5.78326
upperneck 9.05949 -5.44535 5.23374
head 3.35876 -2.72731 2.58505
rclavicle 4.17603e-015 -2.11209e-015
rhumerus -294.148 -29.4351 -384.803
rradius 84.4043
rwrist -63.9275
rhand -26.9782 25.1669
rfingers 7.12502
rthumb -0.399066 -4.81243
lclavicle 4.17603e-015 -2.11209e-015
lhumerus 71.5003 26.5231 29.879
lradius 81.2657
lwrist 58.8692
lhand -14.5998 24.9594
lfingers 7.12502
lthumb 11.5507 54.6211
rfemur -3.33528 4.42328 18.6913
rtibia 17.7358
rfoot -13.0482 -15.721
rtoes -8.55517
lfemur -0.513969 -2.82643 -19.674
ltibia 15.344
lfoot -14.5713 13.0709
ltoes -12.3811
1799
root -0.36805 18.1238 -1.82115 -0.841512 0.564102 0.872272
lowerback 5.1212 1.62675 1.03932
upperback 0.647263 2.20644 -0.798506
thorax -2.13258 1.08958 -1.55368
lowerneck -0.296206 -3.87334 -5.75014
upperneck 9.19815 -5.44292 5.23131
head 3.39395 -2.7258 2.57942
rclavicle 1.14845e-014 -1.39646e-014
rhumerus -294.018 -29.5522 -384.807
rradius 84.0765
rwrist -63.8755
rhand -26.9235 24.9177
rfingers 7.12502
rthumb -0.346214 -5.06176
lclavicle 1.14845e-014 -1.39646e-014
lhumerus 71.8184 26.4625 29.9833
lradius 80.8867
lwrist 58.7933
lhand -14.4672 24.9511
lfingers 7.12502
lthumb 11.6785 54.6056
rfemur -3.28805 4.48636 18.7198
rtibia 17.628
rfoot -12.9368 -15.7698
rtoes -8.85337
lfemur -0.505806 -2.81789 -19.6519
ltibia 15.331
lfoot -14.575 13.1034
ltoes -12.4484
1800
root -0.365356 18.1256 -1.82559 -0.845323 0.525429 0.836886
lowerback 5.1658 1.65925 1.08775
upperback 0.655629 2.25203 -0.830243
thorax -2.14424 1.11178 -1.6178
lowerneck -0.196196 -3.89286 -5.72417
upperneck 9.29023 -5.48081 5.26711
head 3.40997 -2.74385 2.58724
rclavicle -1.44647e-014 -2.03754e-015
rhumerus -293.939 -29.6876 -384.773
rradius 83.7048
rwrist -63.8589
rhand -26.9848 24.8945
rfingers 7.12502
rthumb -0.405442 -5.08489
lclavicle -1.44647e-014 -2.03754e-015
lhumerus 72.2385 26.3835 30.0881
lradius 80.4136
lwrist 58.7845
lhand -13.9491 24.9657
lfingers 7.12502
lthumb 12.1781 54.5912
rfemur -3.27138 4.6507 18.7635
rtibia 17.5586
rfoot -12.8876 -15.9102
rtoes -8.8374
lfemur -0.482772 -2.85233 -19.6296
ltibia 15.2801
lfoot -14.586 13.1914
ltoes -12.5283
1801
root -0.360689 18.1277 -1.83014 -0.83494 0.539107 0.837844
lowerback 5.19369 1.6742 1.11188
upperback 0.664327 2.27268 -0.866915
thorax -2.14772 1.1218 -1.67116
lowerneck -0.13376 -3.9228 -5.74226
upperneck 9.39182 -5.53282 5.33608
head 3.44073 -2.76886 2.61362
rclavicle 1.77664e-015 -8.19987e-015
rhumerus -293.839 -29.8167 -384.689
rradius 83.2519
rwrist -63.9018
rhand -27.1434 25.0407
rfingers 7.12502
rthumb -0.558561 -4.93835
lclavicle 1.77664e-015 -8.19987e-015
lhumerus 72.6644 26.3232 30.1845
lradius 79.9017
lwrist 58.8386
lhand -13.7445 25.0172
lfingers 7.12502
lthumb 12.3755 54.6309
rfemur -3.26883 4.71997 18.7514
rtibia 17.5153
rfoot -12.8374 -15.9893
rtoes -8.85723
lfemur -0.473727 -2.863 -19.6472
ltibia 15.2079
lfoot -14.597 13.263
ltoes -12.6838
1802
root -0.354241 18.1285 -1.83464 -0.829501 0.559647 0.940616
lowerback 5.22894 1.6654 1.02367
upperback 0.670911 2.25509 -0.91404
thorax -2.1628 1.11349 -1.67012
lowerneck -0.14904 -3.94027 -5.77061
upperneck 9.60538 -5.56442 5.36224
head 3.52269 -2.78437 2.62709
rclavicle 3.49395e-014 -4.72114e-015
rhumerus -293.534 -29.8687 -384.733
rradius 82.6012
rwrist -63.9558
rhand -27.1887 25.13
rfingers 7.12502
rthumb -0.60232 -4.8489
lclavicle 3.49395e-014 -4.72114e-015
lhumerus 73.0931 26.2684 30.3114
lradius 79.3036
lwrist 58.8998
lhand -13.697 25.1728
lfingers 7.12502
lthumb 12.4213 54.7838
rfemur -3.2629 4.62415 18.6018
rtibia 17.4884
rfoot -12.8767 -15.8766
rtoes -8.72188
lfemur -0.446942 -2.83837 -19.777
ltibia 15.1179
lfoot -14.6503 13.2198
ltoes -12.5289
1803
root -0.349248 18.1303 -1.83894 -0.827939 0.523967 1.00784
lowerback 5.25992 1.65711 0.929262
upperback 0.681911 2.23876 -0.916021
thorax -2.17293 1.10605 -1.61903
lowerneck -0.191223 -3.92666 -5.80561
upperneck 9.83082 -5.54772 5.32861
head 3.60865 -2.7778 2.62267
rclavicle 2.25062e-014 -2.5345e-015
rhumerus -293.053 -29.8826 -384.899
rradius 81.8625
rwrist -64.0729
rhand -26.9889 25.0212
rfingers 7.12502
rthumb -0.409359 -4.95812
lclavicle 2.25062e-014 -2.5345e-015
lhumerus 73.5 26.2705 30.4185
lradius 78.6253
lwrist 59.0535
lhand -13.5963 25.391
lfingers 7.12502
lthumb 12.5184 54.9961
rfemur -3.27523 4.63156 18.5034
rtibia 17.4661
rfoot -12.8713 -15.817
rtoes -8.65601
lfemur -0.423071 -2.78667 -19.8677
ltibia 15.0467
lfoot -14.6418 13.1466
ltoes -12.0685
1804
root -0.346132 18.1328 -1.84214 -0.802105 0.514629 0.938697
lowerback 5.24873 1.63814 0.957377
upperback 0.683419 2.21588 -0.879714
thorax -2.16627 1.09458 -1.59548
lowerneck -0.213111 -3.89123 -5.85115
upperneck 10.0207 -5.50464 5.3361
head 3.67901 -2.75758 2.63577
rclavicle 4.23039e-015 -1.54058e-015
rhumerus -292.521 -29.8944 -385.064
rradius 80.9912
rwrist -64.1891
rhand -26.8409 24.876
rfingers 7.12502
rthumb -0.266463 -5.10355
lclavicle 4.23039e-015 -1.54058e-015
lhumerus 73.9063 26.267 30.467
lradius 77.8514
lwrist 59.1766
lhand -13.5845 25.4746
lfingers 7.12502
lthumb 12.5297 55.0789
rfemur -3.30179 4.68858 18.5746
rtibia 17.4292
rfoot -12.8285 -15.8802
rtoes -8.67007
lfemur -0.453195 -2.84953 -19.8055
ltibia 15.0161
lfoot -14.5666 13.1664
ltoes -11.8557
1805
root -0.343255 18.1341 -1.84667 -0.748014 0.514485 0.869658
lowerback 5.21516 1.6208 1.01301
upperback 0.671833 2.19587 -0.873946
thorax -2.15823 1.08419 -1.61845
lowerneck -0.146856 -3.85303 -5.81975
upperneck 10.1083 -5.45905 5.32163
head 3.69211 -2.73521 2.62803
rclavicle -7.52897e-015 1.37658e-014
rhumerus -291.982 -29.8956 -385.261
rradius 80.0144
rwrist -64.2435
rhand -26.6857 24.8021
rfingers 7.12502
rthumb -0.116544 -5.17765
lclavicle -7.52897e-015 1.37658e-014
lhumerus 74.4111 26.182 30.5756
lradius 76.9929
lwrist 59.2289
lhand -13.5421 25.5454
lfingers 7.12502
lthumb 12.5706 55.1472
rfemur -3.34101 4.74435 18.6456
rtibia 17.3457
rfoot -12.6946 -15.9919
rtoes -9.06126
lfemur -0.550277 -2.90591 -19.7414
ltibia 15.0431
lfoot -14.5338 13.2105
ltoes -11.8538
1806
root -0.340008 18.1349 -1.84996 -0.721195 0.479525 0.801478
lowerback 5.19286 1.60816 1.03222
upperback 0.67364 2.18049 -0.851773
thorax -2.14458 1.07656 -1.60459
lowerneck -0.0611214 -3.82544 -5.80729
upperneck 10.1672 -5.4269 5.30569
head 3.69307 -2.72054 2.6229
rclavicle 2.76062e-014 1.88845e-015
rhumerus -291.392 -29.8815 -385.482
rradius 79.0227
rwrist -64.3304
rhand -26.6301 24.6259
rfingers 7.12502
rthumb -0.0628459 -5.35382
lclavicle 2.76062e-014 1.88845e-015
lhumerus 74.9738 26.1226 30.7532
lradius 76.0916
lwrist 59.2785
lhand -13.3419 25.6323
lfingers 7.12502
lthumb 12.7636 55.2221
rfemur -3.3225 4.82987 18.7121
rtibia 17.2203
rfoot -12.581 -16.0607
rtoes -9.25488
lfemur -0.612234 -2.83937 -19.6747
ltibia 15.0953
lfoot -14.3817 13.235
ltoes -12.5488
1807
root -0.336952 18.1375 -1.85451 -0.695258 0.455553 0.766169
lowerback 5.18473 1.58488 1.02856
upperback 0.683087 2.14915 -0.854012
thorax -2.13145 1.06112 -1.60227
lowerneck -0.00122746 -3.79764 -5.75789
upperneck 10.2228 -5.39538 5.30067
head 3.69677 -2.70405 2.61429
rclavicle 2.90412e-015 -8.54774e-015
rhumerus -290.775 -29.8547 -385.781
rradius 77.9834
rwrist -64.3516
rhand -26.6584 24.4948
rfingers 7.12502
rthumb -0.0901314 -5.48496
lclavicle 2.90412e-015 -8.54774e-015
lhumerus 75.5714 26.0831 30.8956
lradius 75.1313
lwrist 59.2755
lhand -13.114 25.6337
lfingers 7.12502
lthumb 12.9834 55.2097
rfemur -3.31381 4.88122 18.7355
rtibia 17.1095
rfoot -12.5674 -16.065
rtoes -8.87565
lfemur -0.672372 -2.73678 -19.6378
ltibia 15.1315
lfoot -14.212 13.2234
ltoes -13.2816
1808
root -0.333494 18.1408 -1.85877 -0.667913 0.460936 0.764668
lowerback 5.19461 1.57209 1.00426
upperback 0.672862 2.13044 -0.869166
thorax -2.14844 1.05172 -1.60352
lowerneck 0.0624816 -3.79932 -5.73903
upperneck 10.2777 -5.40316 5.30087
head 3.70364 -2.70805 2.61166
rclavicle -2.79541e-015 -1.94809e-014
rhumerus -290.301 -29.8648 -385.918
rradius 76.9552
rwrist -64.4097
rhand -26.7079 24.4177
rfingers 7.12502
rthumb -0.137932 -5.56198
lclavicle -2.79541e-015 -1.94809e-014
lhumerus 76.2089 25.9979 31.0939
lradius 74.1705
lwrist 59.2983
lhand -12.7957 25.8351
lfingers 7.12502
lthumb 13.2902 55.3913
rfemur -3.29792 4.89217 18.7211
rtibia 16.9911
rfoot -12.517 -16.0725
rtoes -8.51006
lfemur -0.740939 -2.73976 -19.6476
ltibia 15.1758
lfoot -14.3322 13.193
ltoes -12.8292
